# xmcd CD database file
#
# Track frame offsets:
#	150
#	20182
#	38655
#	58686
#
# Disc length: 1025 seconds
#
# Revision: 0
# Processed by: cddbd v1.5PL3 Copyright (c) Steve Scherf et al.
# Submitted via: CDex 1.51
#
DISCID=2f03ff04
DTITLE=椎名　へきる - レヴェランス (EP)
DYEAR=2004
DGENRE=Pop
TTITLE0=レヴェランス
TTITLE1=ファンタジア
TTITLE2=レヴェランス (Backtracks)
TTITLE3=ファンタジア (Backtracks)
EXTD=YEAR: 2004
EXTT0=
EXTT1=
EXTT2=
EXTT3=
PLAYORDER=
